<svg width="85" height="65" viewBox="0 0 85 65" fill="none" xmlns="http://www.w3.org/2000/svg">
<rect x="43" width="8" height="28" rx="4" fill="url(#paint0_linear_1337_92)"/>
<rect x="52" y="14" width="8" height="20" rx="4" fill="url(#paint1_linear_1337_92)"/>
<rect x="34" y="7" width="8" height="31" rx="4" fill="url(#paint2_linear_1337_92)"/>
<rect x="25" y="15" width="7.5" height="17" rx="3.75" fill="url(#paint3_linear_1337_92)"/>
<path d="M3.924 51.18C3.288 51.18 2.67 51.086 2.07 50.898C1.47 50.71 0.962 50.438 0.546 50.082L1.482 48.594C1.658 48.782 1.882 48.944 2.154 49.08C2.426 49.216 2.716 49.322 3.024 49.398C3.336 49.47 3.638 49.506 3.93 49.506C4.342 49.506 4.676 49.438 4.932 49.302C5.192 49.162 5.322 48.96 5.322 48.696C5.322 48.48 5.228 48.298 5.04 48.15C4.856 48.002 4.51 47.86 4.002 47.724L3.282 47.52C2.418 47.28 1.796 46.952 1.416 46.536C1.036 46.12 0.846 45.62 0.846 45.036C0.846 44.66 0.926 44.314 1.086 43.998C1.246 43.678 1.47 43.402 1.758 43.17C2.046 42.934 2.384 42.752 2.772 42.624C3.164 42.492 3.59 42.426 4.05 42.426C4.686 42.426 5.276 42.52 5.82 42.708C6.368 42.892 6.808 43.144 7.14 43.464L6.168 44.904C6.016 44.744 5.828 44.604 5.604 44.484C5.38 44.364 5.136 44.27 4.872 44.202C4.608 44.134 4.342 44.1 4.074 44.1C3.81 44.1 3.58 44.134 3.384 44.202C3.188 44.27 3.034 44.368 2.922 44.496C2.814 44.62 2.76 44.768 2.76 44.94C2.76 45.08 2.8 45.198 2.88 45.294C2.964 45.386 3.102 45.474 3.294 45.558C3.49 45.642 3.754 45.734 4.086 45.834L4.818 46.05C5.678 46.302 6.3 46.618 6.684 46.998C7.068 47.378 7.26 47.872 7.26 48.48C7.26 49.012 7.124 49.482 6.852 49.89C6.58 50.294 6.194 50.61 5.694 50.838C5.198 51.066 4.608 51.18 3.924 51.18ZM12.2541 51.18C11.6101 51.18 11.0141 51.07 10.4661 50.85C9.92206 50.626 9.44806 50.316 9.04406 49.92C8.64006 49.524 8.32606 49.06 8.10206 48.528C7.88206 47.996 7.77206 47.42 7.77206 46.8C7.77206 46.176 7.88206 45.598 8.10206 45.066C8.32606 44.534 8.64006 44.07 9.04406 43.674C9.44806 43.278 9.92206 42.97 10.4661 42.75C11.0141 42.53 11.6101 42.42 12.2541 42.42C12.9021 42.42 13.4981 42.532 14.0421 42.756C14.5861 42.98 15.0601 43.292 15.4641 43.692C15.8681 44.092 16.1801 44.558 16.4001 45.09C16.6241 45.618 16.7361 46.188 16.7361 46.8C16.7361 47.42 16.6241 47.996 16.4001 48.528C16.1801 49.06 15.8681 49.524 15.4641 49.92C15.0601 50.316 14.5861 50.626 14.0421 50.85C13.4981 51.07 12.9021 51.18 12.2541 51.18ZM12.2541 49.308C12.6021 49.308 12.9201 49.25 13.2081 49.134C13.5001 49.018 13.7541 48.85 13.9701 48.63C14.1861 48.41 14.3521 48.146 14.4681 47.838C14.5881 47.526 14.6481 47.18 14.6481 46.8C14.6481 46.288 14.5441 45.844 14.3361 45.468C14.1321 45.092 13.8481 44.802 13.4841 44.598C13.1241 44.39 12.7141 44.286 12.2541 44.286C11.9101 44.286 11.5921 44.346 11.3001 44.466C11.0081 44.582 10.7541 44.75 10.5381 44.97C10.3261 45.19 10.1601 45.454 10.0401 45.762C9.92006 46.07 9.86006 46.416 9.86006 46.8C9.86006 47.308 9.96406 47.75 10.1721 48.126C10.3801 48.502 10.6641 48.794 11.0241 49.002C11.3881 49.206 11.7981 49.308 12.2541 49.308ZM21.3884 51.18C20.6004 51.18 19.9384 51.024 19.4024 50.712C18.8704 50.4 18.4684 49.972 18.1964 49.428C17.9244 48.88 17.7884 48.252 17.7884 47.544V42.6H19.7804V47.616C19.7804 48.188 19.9224 48.614 20.2064 48.894C20.4904 49.17 20.8844 49.308 21.3884 49.308C21.8884 49.308 22.2784 49.17 22.5584 48.894C22.8424 48.614 22.9844 48.188 22.9844 47.616V42.6H24.9824V47.544C24.9824 48.248 24.8464 48.874 24.5744 49.422C24.3024 49.966 23.8984 50.396 23.3624 50.712C22.8304 51.024 22.1724 51.18 21.3884 51.18ZM26.5584 51V42.6H28.5264L31.9824 47.748V42.6H33.9144V51H31.9464L28.4844 45.78V51H26.5584ZM35.5383 51V42.6H38.4183C39.2903 42.6 40.0543 42.778 40.7103 43.134C41.3703 43.49 41.8843 43.984 42.2523 44.616C42.6203 45.244 42.8043 45.972 42.8043 46.8C42.8043 47.424 42.6983 47.994 42.4863 48.51C42.2783 49.022 41.9803 49.464 41.5923 49.836C41.2043 50.208 40.7423 50.496 40.2063 50.7C39.6703 50.9 39.0743 51 38.4183 51H35.5383ZM37.5303 49.146H38.3163C38.6763 49.146 39.0023 49.096 39.2943 48.996C39.5863 48.896 39.8383 48.746 40.0503 48.546C40.2663 48.346 40.4303 48.1 40.5423 47.808C40.6583 47.516 40.7163 47.18 40.7163 46.8C40.7163 46.292 40.6163 45.864 40.4163 45.516C40.2163 45.164 39.9343 44.9 39.5703 44.724C39.2103 44.544 38.7923 44.454 38.3163 44.454H37.5303V49.146ZM47.9139 51.18C47.0459 51.18 46.2799 51.002 45.6159 50.646C44.9519 50.29 44.4339 49.786 44.0619 49.134C43.6899 48.482 43.5039 47.712 43.5039 46.824C43.5039 46.176 43.6119 45.584 43.8279 45.048C44.0479 44.508 44.3559 44.042 44.7519 43.65C45.1519 43.258 45.6219 42.956 46.1619 42.744C46.7059 42.528 47.2999 42.42 47.9439 42.42C48.6439 42.42 49.2319 42.508 49.7079 42.684C50.1839 42.86 50.6139 43.11 50.9979 43.434L50.0019 45.072C49.7699 44.832 49.4899 44.654 49.1619 44.538C48.8339 44.418 48.4719 44.358 48.0759 44.358C47.6839 44.358 47.3339 44.416 47.0259 44.532C46.7219 44.644 46.4619 44.806 46.2459 45.018C46.0339 45.23 45.8719 45.486 45.7599 45.786C45.6479 46.086 45.5919 46.422 45.5919 46.794C45.5919 47.306 45.6919 47.744 45.8919 48.108C46.0959 48.472 46.3859 48.752 46.7619 48.948C47.1379 49.14 47.5879 49.236 48.1119 49.236C48.4879 49.236 48.8599 49.18 49.2279 49.068C49.5999 48.952 49.9519 48.766 50.2839 48.51L51.1959 50.184C50.8079 50.484 50.3439 50.726 49.8039 50.91C49.2639 51.09 48.6339 51.18 47.9139 51.18ZM52.0448 51V42.6H54.0368V45.714H57.3488V42.6H59.3408V51H57.3488V47.532H54.0368V51H52.0448ZM60.9661 51V42.6H66.8701V44.328H62.9581V45.888H66.2401V47.484H62.9581V49.254H66.9181V51H60.9661ZM72.1113 51.18C71.2433 51.18 70.4773 51.002 69.8133 50.646C69.1493 50.29 68.6313 49.786 68.2593 49.134C67.8873 48.482 67.7013 47.712 67.7013 46.824C67.7013 46.176 67.8093 45.584 68.0253 45.048C68.2453 44.508 68.5533 44.042 68.9493 43.65C69.3493 43.258 69.8193 42.956 70.3593 42.744C70.9033 42.528 71.4973 42.42 72.1413 42.42C72.8413 42.42 73.4293 42.508 73.9053 42.684C74.3813 42.86 74.8113 43.11 75.1953 43.434L74.1993 45.072C73.9673 44.832 73.6873 44.654 73.3593 44.538C73.0313 44.418 72.6693 44.358 72.2733 44.358C71.8813 44.358 71.5313 44.416 71.2233 44.532C70.9193 44.644 70.6593 44.806 70.4433 45.018C70.2313 45.23 70.0693 45.486 69.9573 45.786C69.8453 46.086 69.7893 46.422 69.7893 46.794C69.7893 47.306 69.8893 47.744 70.0893 48.108C70.2933 48.472 70.5833 48.752 70.9593 48.948C71.3353 49.14 71.7853 49.236 72.3093 49.236C72.6853 49.236 73.0573 49.18 73.4253 49.068C73.7973 48.952 74.1493 48.766 74.4813 48.51L75.3933 50.184C75.0053 50.484 74.5413 50.726 74.0013 50.91C73.4613 51.09 72.8313 51.18 72.1113 51.18ZM76.2422 51V42.6H78.2342V46.182L81.0842 42.6H83.5682L80.4602 46.458L83.9702 51H81.4082L79.1462 47.964L78.2342 49.002V51H76.2422Z" fill="#060606" fill-opacity="0.95"/>
<path d="M19.6679 64.165C18.8686 64.165 18.1701 64 17.5724 63.67C16.9747 63.34 16.5091 62.8743 16.1754 62.273C15.8454 61.668 15.6804 60.9622 15.6804 60.1555C15.6804 59.5688 15.7776 59.0317 15.9719 58.544C16.1699 58.0527 16.4467 57.6273 16.8024 57.268C17.1617 56.9087 17.5852 56.63 18.0729 56.432C18.5606 56.234 19.0959 56.135 19.6789 56.135C20.2656 56.135 20.7716 56.2083 21.1969 56.355C21.6259 56.5017 21.9999 56.7107 22.3189 56.982L21.6809 57.9885C21.4389 57.7648 21.1566 57.598 20.8339 57.488C20.5112 57.378 20.1556 57.323 19.7669 57.323C19.3379 57.323 18.9511 57.389 18.6064 57.521C18.2617 57.653 17.9666 57.8418 17.7209 58.0875C17.4789 58.3295 17.2919 58.6247 17.1599 58.973C17.0316 59.3177 16.9674 59.7082 16.9674 60.1445C16.9674 60.7385 17.0829 61.2463 17.3139 61.668C17.5486 62.0897 17.8786 62.4123 18.3039 62.636C18.7329 62.856 19.2389 62.966 19.8219 62.966C20.2106 62.966 20.5846 62.9092 20.9439 62.7955C21.3069 62.6782 21.6461 62.4893 21.9614 62.229L22.5334 63.2685C22.1631 63.5582 21.7396 63.78 21.2629 63.934C20.7899 64.088 20.2582 64.165 19.6679 64.165ZM24.5933 64L27.5853 56.3H28.9218L31.9908 64H30.5993L29.8898 62.163H26.6283L25.9463 64H24.5933ZM26.9473 61.1015H29.5598L28.2288 57.7465L26.9473 61.1015ZM34.7558 64V56.3H37.5443C38.0906 56.3 38.5728 56.3953 38.9908 56.586C39.4125 56.773 39.7425 57.0443 39.9808 57.4C40.2191 57.752 40.3383 58.1755 40.3383 58.6705C40.3383 59.1802 40.2283 59.611 40.0083 59.963C39.7883 60.3113 39.4675 60.5772 39.0458 60.7605C38.6278 60.9402 38.1181 61.03 37.5168 61.03H35.9878V64H34.7558ZM35.9878 59.974H37.5333C38.032 59.974 38.4188 59.8695 38.6938 59.6605C38.9688 59.4478 39.1063 59.127 39.1063 58.698C39.1063 58.2727 38.9651 57.9463 38.6828 57.719C38.4005 57.4917 38.021 57.378 37.5443 57.378H35.9878V59.974ZM43.3775 64V56.3H44.6095V64H43.3775ZM49.7346 64V57.4275H47.5676V56.3H53.1336V57.4275H50.9666V64H49.7346ZM54.6972 64L57.6892 56.3H59.0257L62.0947 64H60.7032L59.9937 62.163H56.7322L56.0502 64H54.6972ZM57.0512 61.1015H59.6637L58.3327 57.7465L57.0512 61.1015ZM64.8597 64V56.3H66.0917V62.867H69.4467V64H64.8597Z" fill="#060606" fill-opacity="0.95"/>
<defs>
<linearGradient id="paint0_linear_1337_92" x1="47" y1="0" x2="47" y2="28" gradientUnits="userSpaceOnUse">
<stop stop-color="#EF2A5F"/>
<stop offset="0.435" stop-color="#F58357"/>
<stop offset="0.95" stop-color="#FFBB37"/>
</linearGradient>
<linearGradient id="paint1_linear_1337_92" x1="56" y1="14" x2="56" y2="34" gradientUnits="userSpaceOnUse">
<stop stop-color="#EF2A5F"/>
<stop offset="0.435" stop-color="#F58357"/>
<stop offset="0.95" stop-color="#FFBB37"/>
</linearGradient>
<linearGradient id="paint2_linear_1337_92" x1="38" y1="7" x2="38" y2="38" gradientUnits="userSpaceOnUse">
<stop stop-color="#EF2A5F"/>
<stop offset="0.435" stop-color="#F58357"/>
<stop offset="0.95" stop-color="#FFBB37"/>
</linearGradient>
<linearGradient id="paint3_linear_1337_92" x1="28.75" y1="15" x2="28.75" y2="32" gradientUnits="userSpaceOnUse">
<stop stop-color="#EF2A5F"/>
<stop offset="0.435" stop-color="#F58357"/>
<stop offset="0.95" stop-color="#FFBB37"/>
</linearGradient>
</defs>
</svg>
